<?xml version="1.0" standalone="no"?>
<!DOCTYPE svg PUBLIC "-//W3C//DTD SVG 20010904//EN"
 "http://www.w3.org/TR/2001/REC-SVG-20010904/DTD/svg10.dtd">
<svg version="1.0" xmlns="http://www.w3.org/2000/svg"
 width="16.000000pt" height="16.000000pt" viewBox="0 0 16.000000 16.000000"
 preserveAspectRatio="xMidYMid meet">
<metadata>
Created by potrace 1.11, written by Peter Selinger 2001-2013
</metadata>
<g transform="translate(0.000000,16.000000) scale(0.006809,-0.006809)"
fill="#000000" stroke="none">
<path d="M995 2111 c-293 -48 -554 -226 -705 -481 -62 -104 -113 -248 -127
-359 -13 -99 -5 -323 12 -340 4 -3 115 -7 248 -8 l242 -2 30 33 c50 54 172
189 203 224 16 17 33 32 39 32 6 0 28 -26 49 -57 22 -32 43 -62 47 -68 5 -5
16 -22 25 -37 62 -97 108 -158 118 -156 7 2 42 39 79 83 86 102 166 194 184
212 11 12 25 1 90 -69 42 -45 99 -105 126 -133 l50 -52 73 2 c40 0 76 -3 78
-7 8 -12 -24 -92 -63 -162 -88 -156 -254 -291 -424 -345 -288 -91 -613 11
-807 255 l-23 29 -137 -1 c-75 -1 -140 -2 -144 -3 -11 -1 2 -29 41 -91 76
-120 184 -235 286 -301 53 -35 119 -74 125 -74 3 -1 16 -7 29 -14 33 -18 152
-56 225 -71 90 -18 292 -17 381 4 11 2 40 9 65 15 133 30 306 127 422 237 80
76 168 187 168 212 0 6 3 12 8 14 12 5 60 108 86 185 40 117 68 352 42 354 -6
0 -101 1 -211 1 -190 1 -201 2 -221 22 -16 17 -85 102 -151 186 -70 89 -106
130 -116 130 -7 0 -66 -68 -132 -150 -105 -131 -145 -170 -145 -142 0 4 -10
19 -23 33 -12 15 -62 81 -112 147 -49 66 -93 118 -97 115 -6 -3 -110 -129
-215 -259 -75 -94 -57 -87 -231 -85 l-73 1 5 48 c31 272 229 517 491 607 96
33 140 39 255 39 282 -2 517 -152 661 -424 l24 -45 129 0 128 -1 -6 35 c-7 43
-76 189 -112 236 -14 19 -24 35 -21 35 9 0 -46 63 -121 137 -125 124 -273 208
-450 254 -86 23 -310 34 -397 20z"/>
</g>
</svg>
